<svg width="32" height="32" viewBox="0 0 32 32" fill="none" xmlns="http://www.w3.org/2000/svg">
  <!-- Background circle -->
  <circle cx="16" cy="16" r="15" fill="url(#gradient)" stroke="url(#gradient2)" stroke-width="2"/>
  
  <!-- Left JSON bracket -->
  <path d="M8 8 L8 24 M8 8 L12 8 M8 24 L12 24" stroke="white" stroke-width="2" stroke-linecap="round"/>
  
  <!-- Right JSON bracket -->
  <path d="M24 8 L24 24 M20 8 L24 8 M20 24 L24 24" stroke="white" stroke-width="2" stroke-linecap="round"/>
  
  <!-- Comparison arrows -->
  <path d="M14 12 L18 12 M14 16 L18 16 M14 20 L18 20" stroke="white" stroke-width="2" stroke-linecap="round"/>
  
  <!-- Arrow heads -->
  <path d="M17 10 L19 12 L17 14" stroke="white" stroke-width="2" stroke-linecap="round" stroke-linejoin="round"/>
  <path d="M17 14 L19 16 L17 18" stroke="white" stroke-width="2" stroke-linecap="round" stroke-linejoin="round"/>
  <path d="M17 18 L19 20 L17 22" stroke="white" stroke-width="2" stroke-linecap="round" stroke-linejoin="round"/>
  
  <!-- JSON dots representing data -->
  <circle cx="10" cy="12" r="1" fill="white"/>
  <circle cx="10" cy="16" r="1" fill="white"/>
  <circle cx="10" cy="20" r="1" fill="white"/>
  <circle cx="22" cy="12" r="1" fill="white"/>
  <circle cx="22" cy="16" r="1" fill="white"/>
  <circle cx="22" cy="20" r="1" fill="white"/>
  
  <!-- Gradients -->
  <defs>
    <linearGradient id="gradient" x1="0%" y1="0%" x2="100%" y2="100%">
      <stop offset="0%" style="stop-color:#667eea;stop-opacity:1" />
      <stop offset="100%" style="stop-color:#764ba2;stop-opacity:1" />
    </linearGradient>
    <linearGradient id="gradient2" x1="0%" y1="0%" x2="100%" y2="100%">
      <stop offset="0%" style="stop-color:#5a6fd8;stop-opacity:1" />
      <stop offset="100%" style="stop-color:#6a4190;stop-opacity:1" />
    </linearGradient>
  </defs>
</svg> 